<svg width="149" height="48" viewBox="0 0 149 48" fill="none" xmlns="http://www.w3.org/2000/svg">
<rect width="149" height="48" rx="7" fill="#4E46B4"/>
<path d="M28 24.75H36C36.41 24.75 36.75 24.41 36.75 24C36.75 23.59 36.41 23.25 36 23.25H28C27.59 23.25 27.25 23.59 27.25 24C27.25 24.41 27.59 24.75 28 24.75Z" fill="white"/>
<path d="M32 28.75C32.41 28.75 32.75 28.41 32.75 28V20C32.75 19.59 32.41 19.25 32 19.25C31.59 19.25 31.25 19.59 31.25 20V28C31.25 28.41 31.59 28.75 32 28.75Z" fill="white"/>
<path d="M29 34.75H35C40.43 34.75 42.75 32.43 42.75 27V21C42.75 15.57 40.43 13.25 35 13.25H29C23.57 13.25 21.25 15.57 21.25 21V27C21.25 32.43 23.57 34.75 29 34.75ZM35 14.75C39.61 14.75 41.25 16.39 41.25 21V27C41.25 31.61 39.61 33.25 35 33.25H29C24.39 33.25 22.75 31.61 22.75 27V21C22.75 16.39 24.39 14.75 29 14.75H35Z" fill="white"/>
<path d="M62.625 25.94C61.575 25.94 60.755 25.605 60.165 24.935C59.575 24.255 59.28 23.37 59.28 22.28C59.28 21.52 59.415 20.85 59.685 20.27C59.455 20.05 59.205 19.895 58.935 19.805C58.665 19.705 58.4 19.655 58.14 19.655C57.62 19.655 57.19 19.845 56.85 20.225C56.51 20.605 56.34 21.24 56.34 22.13C56.34 23.29 56.655 24.205 57.285 24.875C57.915 25.535 58.71 26.045 59.67 26.405C60.42 26.695 60.995 26.94 61.395 27.14C61.805 27.33 62.16 27.575 62.46 27.875C62.77 28.165 63.01 28.54 63.18 29H61.755C61.515 28.59 61.175 28.28 60.735 28.07C60.295 27.86 59.78 27.755 59.19 27.755C58.66 27.755 58.19 27.82 57.78 27.95C57.37 28.07 56.965 28.24 56.565 28.46L56.16 27.215C56.79 27.005 57.48 26.9 58.23 26.9C57.23 26.44 56.41 25.83 55.77 25.07C55.14 24.31 54.825 23.31 54.825 22.07C54.825 21.32 54.965 20.675 55.245 20.135C55.525 19.595 55.905 19.185 56.385 18.905C56.875 18.625 57.415 18.485 58.005 18.485C58.425 18.485 58.83 18.565 59.22 18.725C59.61 18.875 59.95 19.115 60.24 19.445C60.83 18.805 61.62 18.485 62.61 18.485C63.68 18.485 64.505 18.83 65.085 19.52C65.675 20.21 65.97 21.135 65.97 22.295C65.97 23.395 65.675 24.28 65.085 24.95C64.505 25.61 63.685 25.94 62.625 25.94ZM62.61 19.595C61.38 19.595 60.765 20.49 60.765 22.28C60.765 23.11 60.92 23.745 61.23 24.185C61.55 24.615 62.015 24.83 62.625 24.83C63.235 24.83 63.695 24.615 64.005 24.185C64.325 23.745 64.485 23.115 64.485 22.295C64.485 20.495 63.86 19.595 62.61 19.595ZM70.9443 18.665C70.9443 19.145 71.0043 19.58 71.1243 19.97C71.2543 20.36 71.4093 20.705 71.5893 21.005C71.7793 21.305 72.0293 21.675 72.3393 22.115C72.6693 22.575 72.9293 22.97 73.1193 23.3C73.3193 23.62 73.4843 23.995 73.6143 24.425C73.7543 24.855 73.8243 25.34 73.8243 25.88C73.8243 26.52 73.6843 27.095 73.4043 27.605C73.1243 28.105 72.7243 28.5 72.2043 28.79C71.6843 29.07 71.0743 29.21 70.3743 29.21C69.6843 29.21 69.0793 29.075 68.5593 28.805C68.0493 28.535 67.6543 28.16 67.3743 27.68C67.1043 27.2 66.9693 26.65 66.9693 26.03C66.9693 25.23 67.1793 24.49 67.5993 23.81L68.8143 24.215C68.7043 24.445 68.6143 24.71 68.5443 25.01C68.4843 25.3 68.4543 25.585 68.4543 25.865C68.4543 26.525 68.6093 27.055 68.9193 27.455C69.2393 27.845 69.7243 28.04 70.3743 28.04C71.0443 28.04 71.5343 27.84 71.8443 27.44C72.1543 27.03 72.3093 26.5 72.3093 25.85C72.3093 25.39 72.2493 24.975 72.1293 24.605C72.0093 24.225 71.8643 23.895 71.6943 23.615C71.5243 23.335 71.2843 22.99 70.9743 22.58C70.6443 22.14 70.3793 21.755 70.1793 21.425C69.9893 21.095 69.8243 20.7 69.6843 20.24C69.5443 19.78 69.4743 19.255 69.4743 18.665H70.9443ZM79.0036 18.485C80.0836 18.485 80.9186 18.76 81.5086 19.31C82.0986 19.86 82.3936 20.585 82.3936 21.485V25.43C82.3936 26.56 82.0986 27.475 81.5086 28.175C80.9186 28.865 80.0836 29.21 79.0036 29.21C78.2536 29.21 77.6186 29.045 77.0986 28.715C76.5786 28.375 76.1886 27.92 75.9286 27.35C75.6686 26.77 75.5386 26.125 75.5386 25.415C75.5386 24.735 75.6736 24.11 75.9436 23.54C76.2236 22.96 76.6136 22.5 77.1136 22.16C77.6136 21.82 78.1936 21.65 78.8536 21.65C79.6536 21.65 80.3586 21.955 80.9686 22.565V21.53C80.9686 20.92 80.8086 20.45 80.4886 20.12C80.1686 19.78 79.6736 19.61 79.0036 19.61C78.4336 19.61 77.9986 19.715 77.6986 19.925C77.3986 20.135 77.2486 20.42 77.2486 20.78V20.945L75.8836 21.095C75.8536 20.985 75.8386 20.87 75.8386 20.75C75.8386 20.31 75.9736 19.92 76.2436 19.58C76.5136 19.23 76.8886 18.96 77.3686 18.77C77.8486 18.58 78.3936 18.485 79.0036 18.485ZM78.9886 28.07C79.6686 28.07 80.1686 27.82 80.4886 27.32C80.8086 26.82 80.9686 26.185 80.9686 25.415V23.72C80.6986 23.42 80.3986 23.19 80.0686 23.03C79.7486 22.86 79.3836 22.775 78.9736 22.775C78.4036 22.775 77.9386 23.005 77.5786 23.465C77.2286 23.925 77.0536 24.575 77.0536 25.415C77.0536 26.225 77.2136 26.87 77.5336 27.35C77.8536 27.83 78.3386 28.07 78.9886 28.07ZM88.4198 18.665C88.4198 19.145 88.4798 19.58 88.5998 19.97C88.7298 20.36 88.8848 20.705 89.0648 21.005C89.2548 21.305 89.5048 21.675 89.8148 22.115C90.1448 22.575 90.4048 22.97 90.5948 23.3C90.7948 23.62 90.9598 23.995 91.0898 24.425C91.2298 24.855 91.2998 25.34 91.2998 25.88C91.2998 26.52 91.1598 27.095 90.8798 27.605C90.5998 28.105 90.1998 28.5 89.6798 28.79C89.1598 29.07 88.5498 29.21 87.8498 29.21C87.1598 29.21 86.5548 29.075 86.0348 28.805C85.5248 28.535 85.1298 28.16 84.8498 27.68C84.5798 27.2 84.4448 26.65 84.4448 26.03C84.4448 25.23 84.6548 24.49 85.0748 23.81L86.2898 24.215C86.1798 24.445 86.0898 24.71 86.0198 25.01C85.9598 25.3 85.9298 25.585 85.9298 25.865C85.9298 26.525 86.0848 27.055 86.3948 27.455C86.7148 27.845 87.1998 28.04 87.8498 28.04C88.5198 28.04 89.0098 27.84 89.3198 27.44C89.6298 27.03 89.7848 26.5 89.7848 25.85C89.7848 25.39 89.7248 24.975 89.6048 24.605C89.4848 24.225 89.3398 23.895 89.1698 23.615C88.9998 23.335 88.7598 22.99 88.4498 22.58C88.1198 22.14 87.8548 21.755 87.6548 21.425C87.4648 21.095 87.2998 20.7 87.1598 20.24C87.0198 19.78 86.9498 19.255 86.9498 18.665H88.4198ZM92.9842 24.14C92.9842 22.71 93.3342 21.56 94.0342 20.69C94.7342 19.81 95.6792 19.285 96.8692 19.115L96.7942 18.455H98.1742L98.0992 19.115C99.2992 19.265 100.249 19.775 100.949 20.645C101.659 21.505 102.014 22.665 102.014 24.125C102.014 25.145 101.824 26.04 101.444 26.81C101.064 27.57 100.534 28.155 99.8542 28.565C99.1742 28.975 98.3892 29.18 97.4992 29.18C96.6092 29.18 95.8242 28.98 95.1442 28.58C94.4642 28.17 93.9342 27.585 93.5542 26.825C93.1742 26.065 92.9842 25.17 92.9842 24.14ZM94.4692 24.14C94.4692 25.45 94.7392 26.425 95.2792 27.065C95.8292 27.705 96.5692 28.025 97.4992 28.025C98.4492 28.025 99.1892 27.705 99.7192 27.065C100.259 26.425 100.529 25.445 100.529 24.125C100.529 21.825 99.7192 20.495 98.0992 20.135C98.1492 20.405 98.1742 20.71 98.1742 21.05V24.275H96.7942V21.02C96.7942 20.7 96.8192 20.41 96.8692 20.15C96.1092 20.33 95.5192 20.75 95.0992 21.41C94.6792 22.06 94.4692 22.97 94.4692 24.14ZM107.038 18.485C107.638 18.485 108.178 18.605 108.658 18.845C109.138 19.075 109.518 19.42 109.798 19.88C110.078 20.34 110.218 20.89 110.218 21.53V25.91C110.218 26.9 109.933 27.7 109.363 28.31C108.803 28.91 107.988 29.21 106.918 29.21C106.248 29.21 105.668 29.08 105.178 28.82C104.688 28.55 104.313 28.19 104.053 27.74C103.793 27.29 103.663 26.78 103.663 26.21C103.663 25.56 103.823 24.95 104.143 24.38L105.403 24.755C105.233 25.145 105.148 25.585 105.148 26.075C105.148 26.675 105.293 27.155 105.583 27.515C105.873 27.865 106.318 28.04 106.918 28.04C108.168 28.04 108.793 27.295 108.793 25.805V21.575C108.793 20.955 108.643 20.48 108.343 20.15C108.043 19.82 107.608 19.655 107.038 19.655C106.468 19.655 106.038 19.805 105.748 20.105C105.468 20.395 105.328 20.765 105.328 21.215C105.328 21.435 105.343 21.62 105.373 21.77C105.403 21.91 105.448 22.07 105.508 22.25L104.233 22.565C103.993 22.085 103.873 21.625 103.873 21.185C103.873 20.665 104.013 20.2 104.293 19.79C104.573 19.38 104.953 19.06 105.433 18.83C105.913 18.6 106.448 18.485 107.038 18.485ZM116.702 21.56C117.632 21.73 118.332 22.155 118.802 22.835C119.272 23.515 119.507 24.355 119.507 25.355C119.507 26.495 119.202 27.425 118.592 28.145C117.982 28.855 117.082 29.21 115.892 29.21C114.702 29.21 113.802 28.855 113.192 28.145C112.582 27.425 112.277 26.495 112.277 25.355C112.277 24.295 112.542 23.415 113.072 22.715C113.602 22.015 114.387 21.615 115.427 21.515C115.457 21.395 115.472 21.215 115.472 20.975C115.472 20.785 115.427 20.63 115.337 20.51C115.257 20.39 115.122 20.245 114.932 20.075C114.692 19.865 114.507 19.665 114.377 19.475C114.257 19.275 114.197 19.005 114.197 18.665H115.577C115.577 18.825 115.617 18.965 115.697 19.085C115.787 19.205 115.932 19.37 116.132 19.58C116.372 19.82 116.552 20.035 116.672 20.225C116.792 20.405 116.852 20.63 116.852 20.9C116.852 21.14 116.802 21.36 116.702 21.56ZM115.892 28.07C116.622 28.07 117.157 27.83 117.497 27.35C117.837 26.87 118.007 26.205 118.007 25.355C118.007 24.475 117.842 23.8 117.512 23.33C117.192 22.85 116.652 22.61 115.892 22.61C115.162 22.61 114.627 22.855 114.287 23.345C113.947 23.825 113.777 24.495 113.777 25.355C113.777 26.205 113.947 26.87 114.287 27.35C114.627 27.83 115.162 28.07 115.892 28.07ZM125.187 18.665C125.187 19.145 125.247 19.58 125.367 19.97C125.497 20.36 125.652 20.705 125.832 21.005C126.022 21.305 126.272 21.675 126.582 22.115C126.912 22.575 127.172 22.97 127.362 23.3C127.562 23.62 127.727 23.995 127.857 24.425C127.997 24.855 128.067 25.34 128.067 25.88C128.067 26.52 127.927 27.095 127.647 27.605C127.367 28.105 126.967 28.5 126.447 28.79C125.927 29.07 125.317 29.21 124.617 29.21C123.927 29.21 123.322 29.075 122.802 28.805C122.292 28.535 121.897 28.16 121.617 27.68C121.347 27.2 121.212 26.65 121.212 26.03C121.212 25.23 121.422 24.49 121.842 23.81L123.057 24.215C122.947 24.445 122.857 24.71 122.787 25.01C122.727 25.3 122.697 25.585 122.697 25.865C122.697 26.525 122.852 27.055 123.162 27.455C123.482 27.845 123.967 28.04 124.617 28.04C125.287 28.04 125.777 27.84 126.087 27.44C126.397 27.03 126.552 26.5 126.552 25.85C126.552 25.39 126.492 24.975 126.372 24.605C126.252 24.225 126.107 23.895 125.937 23.615C125.767 23.335 125.527 22.99 125.217 22.58C124.887 22.14 124.622 21.755 124.422 21.425C124.232 21.095 124.067 20.7 123.927 20.24C123.787 19.78 123.717 19.255 123.717 18.665H125.187Z" fill="white"/>
</svg>
