<svg width="125" height="48" viewBox="0 0 125 48" fill="none" xmlns="http://www.w3.org/2000/svg">
<rect width="125" height="48" rx="7" fill="#4E46B4"/>
<path d="M36.305 24.14C37.605 24.42 38.255 25.1 38.255 26.18C38.255 26.77 38.095 27.295 37.775 27.755C37.455 28.215 36.995 28.575 36.395 28.835C35.805 29.085 35.105 29.21 34.295 29.21C33.095 29.21 32.15 28.975 31.46 28.505C30.78 28.025 30.44 27.395 30.44 26.615C30.44 26.535 30.45 26.445 30.47 26.345L32 26.495V26.6C32 27.08 32.215 27.44 32.645 27.68C33.075 27.92 33.625 28.04 34.295 28.04C35.055 28.04 35.65 27.875 36.08 27.545C36.52 27.205 36.74 26.74 36.74 26.15C36.74 25.7 36.605 25.355 36.335 25.115C36.065 24.875 35.68 24.755 35.18 24.755H34.835L35 23.585H35.285C35.775 23.585 36.18 23.43 36.5 23.12C36.82 22.8 36.98 22.28 36.98 21.56C36.98 20.91 36.84 20.42 36.56 20.09C36.28 19.76 35.91 19.595 35.45 19.595C34.89 19.595 34.38 19.775 33.92 20.135C34.2 20.715 34.34 21.335 34.34 21.995C34.34 22.635 34.21 23.21 33.95 23.72C33.7 24.23 33.335 24.63 32.855 24.92C32.375 25.2 31.805 25.34 31.145 25.34C30.495 25.34 29.925 25.195 29.435 24.905C28.955 24.605 28.585 24.2 28.325 23.69C28.075 23.18 27.95 22.61 27.95 21.98C27.95 21.31 28.075 20.71 28.325 20.18C28.575 19.64 28.94 19.22 29.42 18.92C29.9 18.61 30.47 18.455 31.13 18.455C32.03 18.455 32.77 18.755 33.35 19.355C33.95 18.755 34.68 18.455 35.54 18.455C36.09 18.455 36.58 18.585 37.01 18.845C37.45 19.095 37.79 19.45 38.03 19.91C38.28 20.37 38.405 20.89 38.405 21.47C38.405 22.23 38.22 22.83 37.85 23.27C37.49 23.71 36.975 24 36.305 24.14ZM31.145 24.215C31.685 24.215 32.105 24.03 32.405 23.66C32.705 23.28 32.855 22.725 32.855 21.995C32.855 21.175 32.705 20.57 32.405 20.18C32.105 19.78 31.68 19.58 31.13 19.58C30.59 19.58 30.17 19.78 29.87 20.18C29.58 20.57 29.435 21.17 29.435 21.98C29.435 22.72 29.585 23.28 29.885 23.66C30.185 24.03 30.605 24.215 31.145 24.215ZM40.2084 23.15C40.2084 21.57 40.4984 20.4 41.0784 19.64C41.6684 18.87 42.5584 18.485 43.7484 18.485C44.8384 18.485 45.6984 18.86 46.3284 19.61C46.9684 20.35 47.2884 21.53 47.2884 23.15C47.2884 24.44 47.1784 25.555 46.9584 26.495C46.7384 27.425 46.4634 28.26 46.1334 29H44.7084C45.0784 28.1 45.3534 27.2 45.5334 26.3C45.7234 25.4 45.8184 24.355 45.8184 23.165C45.8184 21.975 45.6534 21.095 45.3234 20.525C44.9934 19.945 44.4684 19.655 43.7484 19.655C43.2484 19.655 42.8484 19.77 42.5484 20C42.2484 20.23 42.0284 20.6 41.8884 21.11C41.7484 21.62 41.6784 22.315 41.6784 23.195C41.6784 24.395 41.7684 25.445 41.9484 26.345C42.1284 27.245 42.4084 28.13 42.7884 29H41.3634C41.0334 28.23 40.7584 27.385 40.5384 26.465C40.3184 25.535 40.2084 24.43 40.2084 23.15ZM57.3504 29C57.1004 28.48 56.7254 28.095 56.2254 27.845C55.7254 27.595 55.0804 27.47 54.2904 27.47C53.1004 27.47 51.9854 27.715 50.9454 28.205L50.5404 27.02C50.9104 26.88 51.2754 26.775 51.6354 26.705C52.0054 26.635 52.4254 26.6 52.8954 26.6C52.1454 26.31 51.4904 25.99 50.9304 25.64C50.3704 25.29 49.8954 24.81 49.5054 24.2C49.1254 23.59 48.9354 22.83 48.9354 21.92C48.9354 20.78 49.1954 19.925 49.7154 19.355C50.2454 18.775 50.9154 18.485 51.7254 18.485C52.3854 18.485 52.9004 18.63 53.2704 18.92C53.6504 19.2 53.9054 19.64 54.0354 20.24C54.1254 19.66 54.3504 19.225 54.7104 18.935C55.0804 18.635 55.5404 18.485 56.0904 18.485C56.6904 18.485 57.1604 18.625 57.5004 18.905C57.8504 19.185 58.0904 19.63 58.2204 20.24C58.3104 19.66 58.5454 19.225 58.9254 18.935C59.3054 18.635 59.7904 18.485 60.3804 18.485C61.2404 18.485 61.9404 18.78 62.4804 19.37C63.0304 19.96 63.3054 20.85 63.3054 22.04C63.3054 22.79 63.2004 23.43 62.9904 23.96C62.7904 24.49 62.4954 25.035 62.1054 25.595L60.9204 25.025C61.2204 24.565 61.4354 24.11 61.5654 23.66C61.6954 23.21 61.7604 22.695 61.7604 22.115C61.7604 21.185 61.6354 20.545 61.3854 20.195C61.1354 19.835 60.7654 19.655 60.2754 19.655C59.8354 19.655 59.4954 19.805 59.2554 20.105C59.0254 20.405 58.9104 20.855 58.9104 21.455V23.69H57.5004V21.455C57.5004 20.865 57.3754 20.42 57.1254 20.12C56.8854 19.81 56.5554 19.655 56.1354 19.655C55.6954 19.655 55.3504 19.81 55.1004 20.12C54.8504 20.42 54.7254 20.865 54.7254 21.455V23.69H53.3154V21.455C53.3154 20.795 53.1904 20.33 52.9404 20.06C52.7004 19.79 52.3554 19.655 51.9054 19.655C51.3954 19.655 51.0254 19.86 50.7954 20.27C50.5654 20.68 50.4504 21.23 50.4504 21.92C50.4504 23.07 50.8454 23.965 51.6354 24.605C52.4254 25.235 53.4354 25.725 54.6654 26.075C55.5854 26.335 56.2954 26.565 56.7954 26.765C57.3054 26.965 57.7454 27.24 58.1154 27.59C58.4854 27.94 58.7504 28.41 58.9104 29H57.3504ZM64.9607 24.14C64.9607 22.71 65.3107 21.56 66.0107 20.69C66.7107 19.81 67.6557 19.285 68.8457 19.115L68.7707 18.455H70.1507L70.0757 19.115C71.2757 19.265 72.2257 19.775 72.9257 20.645C73.6357 21.505 73.9907 22.665 73.9907 24.125C73.9907 25.145 73.8007 26.04 73.4207 26.81C73.0407 27.57 72.5107 28.155 71.8307 28.565C71.1507 28.975 70.3657 29.18 69.4757 29.18C68.5857 29.18 67.8007 28.98 67.1207 28.58C66.4407 28.17 65.9107 27.585 65.5307 26.825C65.1507 26.065 64.9607 25.17 64.9607 24.14ZM66.4457 24.14C66.4457 25.45 66.7157 26.425 67.2557 27.065C67.8057 27.705 68.5457 28.025 69.4757 28.025C70.4257 28.025 71.1657 27.705 71.6957 27.065C72.2357 26.425 72.5057 25.445 72.5057 24.125C72.5057 21.825 71.6957 20.495 70.0757 20.135C70.1257 20.405 70.1507 20.71 70.1507 21.05V24.275H68.7707V21.02C68.7707 20.7 68.7957 20.41 68.8457 20.15C68.0857 20.33 67.4957 20.75 67.0757 21.41C66.6557 22.06 66.4457 22.97 66.4457 24.14ZM76.5545 29C76.2745 28.36 76.0495 27.71 75.8795 27.05C75.7195 26.38 75.6395 25.605 75.6395 24.725C75.6395 23.635 75.7495 22.735 75.9695 22.025C76.1995 21.305 76.6145 20.715 77.2145 20.255C77.8245 19.785 78.6895 19.445 79.8095 19.235C81.3195 18.955 82.3095 18.695 82.7795 18.455L83.3045 19.52C83.0045 19.71 82.6195 19.87 82.1495 20C81.6795 20.12 81.0595 20.235 80.2895 20.345C79.3395 20.485 78.6145 20.725 78.1145 21.065C77.6245 21.405 77.2695 21.86 77.0495 22.43C77.2695 22.15 77.5145 21.95 77.7845 21.83C78.0645 21.7 78.3945 21.635 78.7745 21.635C79.2945 21.635 79.7395 21.77 80.1095 22.04C80.4795 22.31 80.7295 22.72 80.8595 23.27C81.1195 22.18 81.8795 21.635 83.1395 21.635C84.0095 21.635 84.7145 21.92 85.2545 22.49C85.7945 23.06 86.0645 23.905 86.0645 25.025C86.0645 25.785 85.9795 26.48 85.8095 27.11C85.6495 27.73 85.4245 28.36 85.1345 29H83.6495C83.9695 28.2 84.1995 27.505 84.3395 26.915C84.4795 26.315 84.5495 25.695 84.5495 25.055C84.5495 24.215 84.4045 23.63 84.1145 23.3C83.8245 22.97 83.4245 22.805 82.9145 22.805C82.5045 22.805 82.1745 22.935 81.9245 23.195C81.6745 23.445 81.5495 23.855 81.5495 24.425V26.735H80.1545V24.425C80.1545 23.865 80.0145 23.455 79.7345 23.195C79.4645 22.935 79.1345 22.805 78.7445 22.805C78.2045 22.805 77.8045 22.985 77.5445 23.345C77.2845 23.705 77.1545 24.265 77.1545 25.025C77.1545 25.695 77.2195 26.33 77.3495 26.93C77.4895 27.53 77.7195 28.22 78.0395 29H76.5545ZM87.8598 23.15C87.8598 21.57 88.1498 20.4 88.7298 19.64C89.3198 18.87 90.2098 18.485 91.3998 18.485C92.4898 18.485 93.3498 18.86 93.9798 19.61C94.6198 20.35 94.9398 21.53 94.9398 23.15C94.9398 24.44 94.8298 25.555 94.6098 26.495C94.3898 27.425 94.1148 28.26 93.7848 29H92.3598C92.7298 28.1 93.0048 27.2 93.1848 26.3C93.3748 25.4 93.4698 24.355 93.4698 23.165C93.4698 21.975 93.3048 21.095 92.9748 20.525C92.6448 19.945 92.1198 19.655 91.3998 19.655C90.8998 19.655 90.4998 19.77 90.1998 20C89.8998 20.23 89.6798 20.6 89.5398 21.11C89.3998 21.62 89.3298 22.315 89.3298 23.195C89.3298 24.395 89.4198 25.445 89.5998 26.345C89.7798 27.245 90.0598 28.13 90.4398 29H89.0148C88.6848 28.23 88.4098 27.385 88.1898 26.465C87.9698 25.535 87.8598 24.43 87.8598 23.15Z" fill="white"/>
</svg>
