<svg width="91" height="48" viewBox="0 0 91 48" fill="none" xmlns="http://www.w3.org/2000/svg">
<rect width="91" height="48" rx="7" fill="#FC2361"/>
<path d="M24.575 21.95C25.235 21.95 25.8 22.1 26.27 22.4C26.75 22.7 27.11 23.11 27.35 23.63C27.59 24.15 27.71 24.73 27.71 25.37C27.71 26.51 27.415 27.435 26.825 28.145C26.235 28.855 25.38 29.21 24.26 29.21C23.15 29.21 22.305 28.86 21.725 28.16C21.145 27.46 20.855 26.525 20.855 25.355V20.84C20.855 20.05 21.06 19.46 21.47 19.07C21.89 18.68 22.43 18.485 23.09 18.485C23.5 18.485 23.86 18.58 24.17 18.77C24.49 18.96 24.715 19.27 24.845 19.7C24.955 19.27 25.145 18.96 25.415 18.77C25.695 18.58 26.015 18.485 26.375 18.485C26.825 18.485 27.225 18.585 27.575 18.785L27.185 19.79C26.945 19.69 26.695 19.64 26.435 19.64C26.145 19.64 25.925 19.715 25.775 19.865C25.635 20.015 25.565 20.25 25.565 20.57V21.095H24.2V20.555C24.2 20.235 24.115 20 23.945 19.85C23.775 19.69 23.545 19.61 23.255 19.61C22.605 19.61 22.28 19.99 22.28 20.75V22.88C22.55 22.6 22.88 22.375 23.27 22.205C23.67 22.035 24.105 21.95 24.575 21.95ZM24.275 28.07C24.925 28.07 25.405 27.835 25.715 27.365C26.035 26.885 26.195 26.22 26.195 25.37C26.195 23.84 25.585 23.075 24.365 23.075C23.955 23.075 23.57 23.16 23.21 23.33C22.85 23.5 22.54 23.73 22.28 24.02V25.34C22.28 26.15 22.435 26.81 22.745 27.32C23.065 27.82 23.575 28.07 24.275 28.07ZM33.37 18.665C33.37 19.145 33.43 19.58 33.55 19.97C33.68 20.36 33.835 20.705 34.015 21.005C34.205 21.305 34.455 21.675 34.765 22.115C35.095 22.575 35.355 22.97 35.545 23.3C35.745 23.62 35.91 23.995 36.04 24.425C36.18 24.855 36.25 25.34 36.25 25.88C36.25 26.52 36.11 27.095 35.83 27.605C35.55 28.105 35.15 28.5 34.63 28.79C34.11 29.07 33.5 29.21 32.8 29.21C32.11 29.21 31.505 29.075 30.985 28.805C30.475 28.535 30.08 28.16 29.8 27.68C29.53 27.2 29.395 26.65 29.395 26.03C29.395 25.23 29.605 24.49 30.025 23.81L31.24 24.215C31.13 24.445 31.04 24.71 30.97 25.01C30.91 25.3 30.88 25.585 30.88 25.865C30.88 26.525 31.035 27.055 31.345 27.455C31.665 27.845 32.15 28.04 32.8 28.04C33.47 28.04 33.96 27.84 34.27 27.44C34.58 27.03 34.735 26.5 34.735 25.85C34.735 25.39 34.675 24.975 34.555 24.605C34.435 24.225 34.29 23.895 34.12 23.615C33.95 23.335 33.71 22.99 33.4 22.58C33.07 22.14 32.805 21.755 32.605 21.425C32.415 21.095 32.25 20.7 32.11 20.24C31.97 19.78 31.9 19.255 31.9 18.665H33.37ZM42.5694 18.485C43.2294 18.485 43.7644 18.68 44.1744 19.07C44.5844 19.46 44.7894 20.04 44.7894 20.81V25.58C44.7894 26.27 44.6594 26.89 44.3994 27.44C44.1394 27.99 43.7544 28.425 43.2444 28.745C42.7344 29.055 42.1144 29.21 41.3844 29.21C40.6344 29.21 39.9994 29.045 39.4794 28.715C38.9694 28.385 38.5844 27.945 38.3244 27.395C38.0644 26.845 37.9344 26.235 37.9344 25.565C37.9344 24.925 38.0644 24.33 38.3244 23.78C38.5944 23.23 38.9744 22.79 39.4644 22.46C39.9544 22.12 40.5194 21.95 41.1594 21.95C42.0194 21.95 42.7544 22.255 43.3644 22.865V20.75C43.3644 19.99 43.0394 19.61 42.3894 19.61C42.1094 19.61 41.8794 19.695 41.6994 19.865C41.5294 20.035 41.4444 20.28 41.4444 20.6V21.095H40.0794V20.6C40.0794 19.96 39.7894 19.64 39.2094 19.64C38.9494 19.64 38.6994 19.69 38.4594 19.79L38.0694 18.785C38.4294 18.585 38.8344 18.485 39.2844 18.485C39.6244 18.485 39.9294 18.58 40.1994 18.77C40.4794 18.96 40.6794 19.27 40.7994 19.7C40.9394 19.26 41.1644 18.95 41.4744 18.77C41.7944 18.58 42.1594 18.485 42.5694 18.485ZM41.3694 28.07C42.0494 28.07 42.5494 27.83 42.8694 27.35C43.1994 26.86 43.3644 26.265 43.3644 25.565V24.035C42.8044 23.395 42.1344 23.075 41.3544 23.075C40.7944 23.075 40.3344 23.3 39.9744 23.75C39.6244 24.19 39.4494 24.795 39.4494 25.565C39.4494 26.305 39.6094 26.91 39.9294 27.38C40.2494 27.84 40.7294 28.07 41.3694 28.07ZM55.2263 29C54.9763 28.48 54.6013 28.095 54.1013 27.845C53.6013 27.595 52.9563 27.47 52.1663 27.47C50.9763 27.47 49.8613 27.715 48.8213 28.205L48.4163 27.02C48.7863 26.88 49.1513 26.775 49.5113 26.705C49.8813 26.635 50.3013 26.6 50.7713 26.6C50.0213 26.31 49.3663 25.99 48.8063 25.64C48.2463 25.29 47.7713 24.81 47.3813 24.2C47.0013 23.59 46.8113 22.83 46.8113 21.92C46.8113 20.78 47.0713 19.925 47.5913 19.355C48.1213 18.775 48.7913 18.485 49.6013 18.485C50.2613 18.485 50.7763 18.63 51.1463 18.92C51.5263 19.2 51.7813 19.64 51.9113 20.24C52.0013 19.66 52.2263 19.225 52.5863 18.935C52.9563 18.635 53.4163 18.485 53.9663 18.485C54.5663 18.485 55.0363 18.625 55.3763 18.905C55.7263 19.185 55.9663 19.63 56.0963 20.24C56.1863 19.66 56.4213 19.225 56.8013 18.935C57.1813 18.635 57.6663 18.485 58.2563 18.485C59.1163 18.485 59.8163 18.78 60.3563 19.37C60.9063 19.96 61.1813 20.85 61.1813 22.04C61.1813 22.79 61.0763 23.43 60.8663 23.96C60.6663 24.49 60.3713 25.035 59.9813 25.595L58.7963 25.025C59.0963 24.565 59.3113 24.11 59.4413 23.66C59.5713 23.21 59.6363 22.695 59.6363 22.115C59.6363 21.185 59.5113 20.545 59.2613 20.195C59.0113 19.835 58.6413 19.655 58.1513 19.655C57.7113 19.655 57.3713 19.805 57.1313 20.105C56.9013 20.405 56.7863 20.855 56.7863 21.455V23.69H55.3763V21.455C55.3763 20.865 55.2513 20.42 55.0013 20.12C54.7613 19.81 54.4313 19.655 54.0113 19.655C53.5713 19.655 53.2263 19.81 52.9763 20.12C52.7263 20.42 52.6013 20.865 52.6013 21.455V23.69H51.1913V21.455C51.1913 20.795 51.0663 20.33 50.8163 20.06C50.5763 19.79 50.2313 19.655 49.7813 19.655C49.2713 19.655 48.9013 19.86 48.6713 20.27C48.4413 20.68 48.3263 21.23 48.3263 21.92C48.3263 23.07 48.7213 23.965 49.5113 24.605C50.3013 25.235 51.3113 25.725 52.5413 26.075C53.4613 26.335 54.1713 26.565 54.6713 26.765C55.1813 26.965 55.6213 27.24 55.9913 27.59C56.3613 27.94 56.6263 28.41 56.7863 29H55.2263ZM66.3876 18.665C66.3876 19.145 66.4476 19.58 66.5676 19.97C66.6976 20.36 66.8526 20.705 67.0326 21.005C67.2226 21.305 67.4726 21.675 67.7826 22.115C68.1126 22.575 68.3726 22.97 68.5626 23.3C68.7626 23.62 68.9276 23.995 69.0576 24.425C69.1976 24.855 69.2676 25.34 69.2676 25.88C69.2676 26.52 69.1276 27.095 68.8476 27.605C68.5676 28.105 68.1676 28.5 67.6476 28.79C67.1276 29.07 66.5176 29.21 65.8176 29.21C65.1276 29.21 64.5226 29.075 64.0026 28.805C63.4926 28.535 63.0976 28.16 62.8176 27.68C62.5476 27.2 62.4126 26.65 62.4126 26.03C62.4126 25.23 62.6226 24.49 63.0426 23.81L64.2576 24.215C64.1476 24.445 64.0576 24.71 63.9876 25.01C63.9276 25.3 63.8976 25.585 63.8976 25.865C63.8976 26.525 64.0526 27.055 64.3626 27.455C64.6826 27.845 65.1676 28.04 65.8176 28.04C66.4876 28.04 66.9776 27.84 67.2876 27.44C67.5976 27.03 67.7526 26.5 67.7526 25.85C67.7526 25.39 67.6926 24.975 67.5726 24.605C67.4526 24.225 67.3076 23.895 67.1376 23.615C66.9676 23.335 66.7276 22.99 66.4176 22.58C66.0876 22.14 65.8226 21.755 65.6226 21.425C65.4326 21.095 65.2676 20.7 65.1276 20.24C64.9876 19.78 64.9176 19.255 64.9176 18.665H66.3876Z" fill="white"/>
</svg>
